<svg width="25" height="25" viewBox="0 0 25 25" fill="none" xmlns="http://www.w3.org/2000/svg">
<path d="M17.7083 3.47916C19.2794 4.3863 20.5864 5.68804 21.4998 7.25551C22.4132 8.82298 22.9014 10.6018 22.916 12.416C22.9307 14.2301 22.4713 16.0166 21.5833 17.5986C20.6954 19.1807 19.4096 20.5033 17.8534 21.4357C16.2971 22.3681 14.5243 22.8779 12.7105 22.9146C10.8967 22.9514 9.10472 22.5137 7.51202 21.645C5.91931 20.7764 4.5811 19.5068 3.62984 17.962C2.67859 16.4172 2.14728 14.6507 2.08852 12.8375L2.08331 12.5L2.08852 12.1625C2.14686 10.3635 2.67034 8.61037 3.60794 7.07394C4.54553 5.53752 5.86524 4.27025 7.43841 3.3957C9.01157 2.52115 10.7845 2.06915 12.5844 2.08378C14.3842 2.09841 16.1496 2.57915 17.7083 3.47916ZM12.5 6.24999C12.2448 6.25002 11.9986 6.34369 11.8079 6.51324C11.6173 6.68278 11.4955 6.9164 11.4656 7.16978L11.4583 7.29166V12.5L11.4677 12.6364C11.4914 12.8172 11.5622 12.9885 11.6729 13.1333L11.7635 13.2375L14.8885 16.3625L14.9864 16.4479C15.1691 16.5896 15.3938 16.6666 15.625 16.6666C15.8562 16.6666 16.0808 16.5896 16.2635 16.4479L16.3614 16.3614L16.4479 16.2635C16.5896 16.0809 16.6666 15.8562 16.6666 15.625C16.6666 15.3938 16.5896 15.1691 16.4479 14.9864L16.3614 14.8885L13.5416 12.0677V7.29166L13.5344 7.16978C13.5045 6.9164 13.3827 6.68278 13.192 6.51324C13.0014 6.34369 12.7551 6.25002 12.5 6.24999Z" fill="#94472F"/>
</svg>
